<svg width="596" height="842" viewBox="0 0 596 842" fill="none" xmlns="http://www.w3.org/2000/svg">
<path d="M189.072 320.768C185.531 320.768 182.245 320.192 179.216 319.04C176.229 317.888 173.627 316.267 171.408 314.176C169.232 312.085 167.525 309.632 166.288 306.816C165.093 304 164.496 300.928 164.496 297.6C164.496 294.272 165.093 291.2 166.288 288.384C167.525 285.568 169.253 283.115 171.472 281.024C173.691 278.933 176.293 277.312 179.28 276.16C182.267 275.008 185.509 274.432 189.008 274.432C192.549 274.432 195.792 275.008 198.736 276.16C201.723 277.312 204.304 278.933 206.48 281.024C208.699 283.115 210.427 285.568 211.664 288.384C212.901 291.157 213.52 294.229 213.52 297.6C213.52 300.928 212.901 304.021 211.664 306.88C210.427 309.696 208.699 312.149 206.48 314.24C204.304 316.288 201.723 317.888 198.736 319.04C195.792 320.192 192.571 320.768 189.072 320.768ZM189.008 311.936C191.013 311.936 192.848 311.595 194.512 310.912C196.219 310.229 197.712 309.248 198.992 307.968C200.272 306.688 201.253 305.173 201.936 303.424C202.661 301.675 203.024 299.733 203.024 297.6C203.024 295.467 202.661 293.525 201.936 291.776C201.253 290.027 200.272 288.512 198.992 287.232C197.755 285.952 196.283 284.971 194.576 284.288C192.869 283.605 191.013 283.264 189.008 283.264C187.003 283.264 185.147 283.605 183.44 284.288C181.776 284.971 180.304 285.952 179.024 287.232C177.744 288.512 176.741 290.027 176.016 291.776C175.333 293.525 174.992 295.467 174.992 297.6C174.992 299.691 175.333 301.632 176.016 303.424C176.741 305.173 177.723 306.688 178.96 307.968C180.24 309.248 181.733 310.229 183.44 310.912C185.147 311.595 187.003 311.936 189.008 311.936ZM241.216 320.768C234.859 320.768 229.888 318.997 226.304 315.456C222.72 311.915 220.928 306.859 220.928 300.288V275.2H231.296V299.904C231.296 304.171 232.171 307.243 233.92 309.12C235.669 310.997 238.123 311.936 241.28 311.936C244.437 311.936 246.891 310.997 248.64 309.12C250.389 307.243 251.264 304.171 251.264 299.904V275.2H261.504V300.288C261.504 306.859 259.712 311.915 256.128 315.456C252.544 318.997 247.573 320.768 241.216 320.768ZM271.75 320V275.2H291.142C295.152 275.2 298.608 275.861 301.51 277.184C304.411 278.464 306.651 280.32 308.23 282.752C309.808 285.184 310.598 288.085 310.598 291.456C310.598 294.784 309.808 297.664 308.23 300.096C306.651 302.485 304.411 304.32 301.51 305.6C298.608 306.88 295.152 307.52 291.142 307.52H277.51L282.118 302.976V320H271.75ZM300.229 320L289.03 303.744H300.102L311.43 320H300.229ZM282.118 304.128L277.51 299.264H290.566C293.766 299.264 296.155 298.581 297.734 297.216C299.312 295.808 300.102 293.888 300.102 291.456C300.102 288.981 299.312 287.061 297.734 285.696C296.155 284.331 293.766 283.648 290.566 283.648H277.51L282.118 278.72V304.128ZM318.812 320V275.2H338.204C342.215 275.2 345.671 275.861 348.572 277.184C351.473 278.464 353.713 280.32 355.292 282.752C356.871 285.184 357.66 288.085 357.66 291.456C357.66 294.784 356.871 297.664 355.292 300.096C353.713 302.528 351.473 304.405 348.572 305.728C345.671 307.008 342.215 307.648 338.204 307.648H324.572L329.18 302.976V320H318.812ZM329.18 304.128L324.572 299.2H337.628C340.828 299.2 343.217 298.517 344.796 297.152C346.375 295.787 347.164 293.888 347.164 291.456C347.164 288.981 346.375 287.061 344.796 285.696C343.217 284.331 340.828 283.648 337.628 283.648H324.572L329.18 278.72V304.128ZM365.062 320V275.2H384.454C388.465 275.2 391.921 275.861 394.822 277.184C397.723 278.464 399.963 280.32 401.542 282.752C403.121 285.184 403.91 288.085 403.91 291.456C403.91 294.784 403.121 297.664 401.542 300.096C399.963 302.485 397.723 304.32 394.822 305.6C391.921 306.88 388.465 307.52 384.454 307.52H370.822L375.43 302.976V320H365.062ZM393.542 320L382.342 303.744H393.414L404.742 320H393.542ZM375.43 304.128L370.822 299.264H383.878C387.078 299.264 389.467 298.581 391.046 297.216C392.625 295.808 393.414 293.888 393.414 291.456C393.414 288.981 392.625 287.061 391.046 285.696C389.467 284.331 387.078 283.648 383.878 283.648H370.822L375.43 278.72V304.128ZM433.885 320.768C430.343 320.768 427.058 320.192 424.029 319.04C421.042 317.888 418.439 316.267 416.22 314.176C414.045 312.085 412.338 309.632 411.101 306.816C409.906 304 409.309 300.928 409.309 297.6C409.309 294.272 409.906 291.2 411.101 288.384C412.338 285.568 414.066 283.115 416.285 281.024C418.503 278.933 421.106 277.312 424.093 276.16C427.079 275.008 430.322 274.432 433.821 274.432C437.362 274.432 440.604 275.008 443.549 276.16C446.535 277.312 449.117 278.933 451.293 281.024C453.511 283.115 455.239 285.568 456.477 288.384C457.714 291.157 458.333 294.229 458.333 297.6C458.333 300.928 457.714 304.021 456.477 306.88C455.239 309.696 453.511 312.149 451.293 314.24C449.117 316.288 446.535 317.888 443.549 319.04C440.604 320.192 437.383 320.768 433.885 320.768ZM433.821 311.936C435.826 311.936 437.661 311.595 439.325 310.912C441.031 310.229 442.525 309.248 443.805 307.968C445.085 306.688 446.066 305.173 446.749 303.424C447.474 301.675 447.837 299.733 447.837 297.6C447.837 295.467 447.474 293.525 446.749 291.776C446.066 290.027 445.085 288.512 443.805 287.232C442.567 285.952 441.095 284.971 439.389 284.288C437.682 283.605 435.826 283.264 433.821 283.264C431.815 283.264 429.959 283.605 428.253 284.288C426.589 284.971 425.117 285.952 423.837 287.232C422.557 288.512 421.554 290.027 420.829 291.776C420.146 293.525 419.805 295.467 419.805 297.6C419.805 299.691 420.146 301.632 420.829 303.424C421.554 305.173 422.535 306.688 423.773 307.968C425.053 309.248 426.546 310.229 428.253 310.912C429.959 311.595 431.815 311.936 433.821 311.936ZM466.125 320V275.2H485.517C489.527 275.2 492.983 275.861 495.885 277.184C498.786 278.464 501.026 280.32 502.605 282.752C504.183 285.184 504.973 288.085 504.973 291.456C504.973 294.784 504.183 297.664 502.605 300.096C501.026 302.528 498.786 304.405 495.885 305.728C492.983 307.008 489.527 307.648 485.517 307.648H471.885L476.493 302.976V320H466.125ZM476.493 304.128L471.885 299.2H484.941C488.141 299.2 490.53 298.517 492.109 297.152C493.687 295.787 494.477 293.888 494.477 291.456C494.477 288.981 493.687 287.061 492.109 285.696C490.53 284.331 488.141 283.648 484.941 283.648H471.885L476.493 278.72V304.128ZM527.72 320.768C524.136 320.768 520.701 320.299 517.416 319.36C514.13 318.379 511.485 317.12 509.48 315.584L513 307.776C514.92 309.141 517.181 310.272 519.784 311.168C522.429 312.021 525.096 312.448 527.784 312.448C529.832 312.448 531.474 312.256 532.712 311.872C533.992 311.445 534.93 310.869 535.528 310.144C536.125 309.419 536.424 308.587 536.424 307.648C536.424 306.453 535.954 305.515 535.016 304.832C534.077 304.107 532.84 303.531 531.304 303.104C529.768 302.635 528.061 302.208 526.184 301.824C524.349 301.397 522.493 300.885 520.616 300.288C518.781 299.691 517.096 298.923 515.56 297.984C514.024 297.045 512.765 295.808 511.784 294.272C510.845 292.736 510.376 290.773 510.376 288.384C510.376 285.824 511.058 283.499 512.424 281.408C513.832 279.275 515.922 277.589 518.696 276.352C521.512 275.072 525.032 274.432 529.256 274.432C532.072 274.432 534.845 274.773 537.576 275.456C540.306 276.096 542.717 277.077 544.808 278.4L541.608 286.272C539.517 285.077 537.426 284.203 535.336 283.648C533.245 283.051 531.197 282.752 529.192 282.752C527.186 282.752 525.544 282.987 524.264 283.456C522.984 283.925 522.066 284.544 521.512 285.312C520.957 286.037 520.68 286.891 520.68 287.872C520.68 289.024 521.149 289.963 522.088 290.688C523.026 291.371 524.264 291.925 525.8 292.352C527.336 292.779 529.021 293.205 530.856 293.632C532.733 294.059 534.589 294.549 536.424 295.104C538.301 295.659 540.008 296.405 541.544 297.344C543.08 298.283 544.317 299.52 545.256 301.056C546.237 302.592 546.728 304.533 546.728 306.88C546.728 309.397 546.024 311.701 544.616 313.792C543.208 315.883 541.096 317.568 538.28 318.848C535.506 320.128 531.986 320.768 527.72 320.768Z" fill="#1C3664"/>
<path d="M145.734 269.462C145.623 278.886 139.721 289.933 135.814 297.246C133.881 300.869 132.135 303.6 129.456 307.784C123.085 317.739 117.314 325.613 113.179 331C113.179 331 77 289.601 77 269.462C77 249.323 92.3869 233 111.37 233C130.354 233 145.913 254.187 145.741 269.462H145.734Z" fill="#003366" stroke="white" stroke-width="3" stroke-miterlimit="10"/>
<path d="M121.375 276.739L88.0489 296.542L81.3741 284.804L110.539 269.517L121.375 276.739Z" fill="#FF6B35" stroke="white" stroke-width="2" stroke-miterlimit="10"/>
<path d="M101.199 289.557L121.395 320.271" stroke="white" stroke-width="2" stroke-miterlimit="10"/>
<path d="M112.227 282.712L129.834 307.424" stroke="white" stroke-width="2" stroke-miterlimit="10"/>
<path d="M121.499 276.791L139.195 289.971" stroke="white" stroke-width="2" stroke-miterlimit="10"/>
<path d="M97.665 276.584V254.193L111.297 246.964L110.774 270.005" stroke="white" stroke-width="2" stroke-miterlimit="10"/>
<path d="M124.392 278.691L125.115 254.378L112.496 246.964L111.779 270.537" stroke="white" stroke-width="2" stroke-miterlimit="10"/>
</svg>
